# xmcd
#
# Track frame offsets:
#	300
#	17797
#	35121
#	52071
#	70721
#	88636
#	104169
#	121282
#	138840
#	158061
#	173437
#	187961
#	203428
#	220171
#	238477
#
# Disc length: 3424 seconds
#
# Revision: 1
# Processed by: cddbd v1.5.2PL0 Copyright (c) Steve Scherf et al.
# Submitted via: audiograbber 1.83.01
#
DISCID=d30d5c0f
DTITLE=Compilation - CBP60371
DYEAR=2008
DGENRE=Karaoke
TTITLE0=Joe Nichols -  It Ain't No Crime
TTITLE1=Dierks Bentley - Trying To Stop Your Leaving
TTITLE2=Carrie Underwood  - All American Girl
TTITLE3=James Otto  -  Just Got Started Lovin' You
TTITLE4=Star De Azlan - She's Pretty
TTITLE5=Whiskey Falls - Falling Into You
TTITLE6=Carter's Chord -  Young Love
TTITLE7=Trace Adkins -  You're Gonna Miss This
TTITLE8=Trisha Yearwood - This Is Me You're Talking To
TTITLE9=Ashton Shepard - Takin' Off This Pain
TTITLE10=Miranda Lambert  - Gunpowder and Lead
TTITLE11=Rockie Lynne -  I Can't Believe It's Me
TTITLE12=Jypsi -  I Don't Love You Like That
TTITLE13=Crossin Dixon -  Make You Mine
TTITLE14=Halfway To Hazard  - Devil And The Cross
EXTD=
EXTT0=
EXTT1=
EXTT2=
EXTT3=
EXTT4=
EXTT5=
EXTT6=
EXTT7=
EXTT8=
EXTT9=
EXTT10=
EXTT11=
EXTT12=
EXTT13=
EXTT14=
PLAYORDER=
